<svg width="49" height="15" viewBox="0 0 49 15" fill="none" xmlns="http://www.w3.org/2000/svg">
<path d="M8.604 3.182V4.55H10.422V6.206H8.496C8.304 7.346 7.83 8.174 7.074 8.69C6.33 9.206 5.202 9.464 3.69 9.464V10.418C3.69 10.982 3.804 11.426 4.032 11.75C4.272 12.074 4.674 12.236 5.238 12.236C5.778 12.236 6.168 12.086 6.408 11.786C6.648 11.474 6.768 11.024 6.768 10.436H9.108C9.084 11.648 8.742 12.578 8.082 13.226C7.422 13.862 6.48 14.18 5.256 14.18C3.984 14.18 3.012 13.838 2.34 13.154C1.668 12.47 1.332 11.474 1.332 10.166V7.772C2.616 7.772 3.564 7.742 4.176 7.682C4.788 7.61 5.244 7.466 5.544 7.25C5.844 7.034 6.042 6.686 6.138 6.206H0.756V4.55H6.228V3.182H0.756V1.418H10.422V3.182H8.604ZM16.283 4.334C16.343 3.134 16.763 2.21 17.543 1.562C18.335 0.901999 19.373 0.571999 20.657 0.571999C21.533 0.571999 22.283 0.727999 22.907 1.04C23.531 1.34 23.999 1.754 24.311 2.282C24.635 2.798 24.797 3.386 24.797 4.046C24.797 4.802 24.599 5.444 24.203 5.972C23.819 6.488 23.357 6.836 22.817 7.016V7.088C23.513 7.304 24.053 7.688 24.437 8.24C24.833 8.792 25.031 9.5 25.031 10.364C25.031 11.084 24.863 11.726 24.527 12.29C24.203 12.854 23.717 13.298 23.069 13.622C22.433 13.934 21.665 14.09 20.765 14.09C19.409 14.09 18.305 13.748 17.453 13.064C16.601 12.38 16.151 11.372 16.103 10.04H18.551C18.575 10.628 18.773 11.102 19.145 11.462C19.529 11.81 20.051 11.984 20.711 11.984C21.323 11.984 21.791 11.816 22.115 11.48C22.451 11.132 22.619 10.688 22.619 10.148C22.619 9.428 22.391 8.912 21.935 8.6C21.479 8.288 20.771 8.132 19.811 8.132H19.289V6.062H19.811C21.515 6.062 22.367 5.492 22.367 4.352C22.367 3.836 22.211 3.434 21.899 3.146C21.599 2.858 21.161 2.714 20.585 2.714C20.021 2.714 19.583 2.87 19.271 3.182C18.971 3.482 18.797 3.866 18.749 4.334H16.283ZM35.8424 3.056H30.0104V6.134C30.2624 5.822 30.6224 5.57 31.0904 5.378C31.5584 5.174 32.0564 5.072 32.5844 5.072C33.5444 5.072 34.3304 5.282 34.9424 5.702C35.5544 6.122 35.9984 6.662 36.2744 7.322C36.5504 7.97 36.6884 8.666 36.6884 9.41C36.6884 10.79 36.2924 11.9 35.5004 12.74C34.7204 13.58 33.6044 14 32.1524 14C30.7844 14 29.6924 13.658 28.8764 12.974C28.0604 12.29 27.5984 11.396 27.4904 10.292H29.9384C30.0464 10.772 30.2864 11.156 30.6584 11.444C31.0424 11.732 31.5284 11.876 32.1164 11.876C32.8244 11.876 33.3584 11.654 33.7184 11.21C34.0784 10.766 34.2584 10.178 34.2584 9.446C34.2584 8.702 34.0724 8.138 33.7004 7.754C33.3404 7.358 32.8064 7.16 32.0984 7.16C31.5944 7.16 31.1744 7.286 30.8384 7.538C30.5024 7.79 30.2624 8.126 30.1184 8.546H27.7064V0.842H35.8424V3.056ZM38.6063 7.268C38.6063 5.192 38.9783 3.566 39.7223 2.39C40.4783 1.214 41.7263 0.625999 43.4663 0.625999C45.2063 0.625999 46.4483 1.214 47.1923 2.39C47.9483 3.566 48.3263 5.192 48.3263 7.268C48.3263 9.356 47.9483 10.994 47.1923 12.182C46.4483 13.37 45.2063 13.964 43.4663 13.964C41.7263 13.964 40.4783 13.37 39.7223 12.182C38.9783 10.994 38.6063 9.356 38.6063 7.268ZM45.8423 7.268C45.8423 6.38 45.7823 5.636 45.6623 5.036C45.5543 4.424 45.3263 3.926 44.9783 3.542C44.6423 3.158 44.1383 2.966 43.4663 2.966C42.7943 2.966 42.2843 3.158 41.9363 3.542C41.6003 3.926 41.3723 4.424 41.2523 5.036C41.1443 5.636 41.0903 6.38 41.0903 7.268C41.0903 8.18 41.1443 8.948 41.2523 9.572C41.3603 10.184 41.5883 10.682 41.9363 11.066C42.2843 11.438 42.7943 11.624 43.4663 11.624C44.1383 11.624 44.6483 11.438 44.9963 11.066C45.3443 10.682 45.5723 10.184 45.6803 9.572C45.7883 8.948 45.8423 8.18 45.8423 7.268Z" fill="white"/>
</svg>
